<svg xmlns="http://www.w3.org/2000/svg"  viewBox="0 0 50 50" width="50px" height="50px"><path d="M 22 0.98242188 C 19.802706 0.98242188 18 2.7851275 18 4.9824219 C 18 7.1797162 19.802706 8.9824219 22 8.9824219 C 24.197294 8.9824219 26 7.1797162 26 4.9824219 C 26 2.7851275 24.197294 0.98242188 22 0.98242188 z M 32.494141 10 C 30.022692 9.9999999 28 12.027335 28 14.5 C 28 16.972665 30.022692 19 32.494141 19 C 34.965589 19 36.990234 16.972665 36.990234 14.5 C 36.990234 12.027335 34.965589 9.9999999 32.494141 10 z M 22.003906 10.5 C 19.808099 10.5 18.007814 12.303426 18.007812 14.5 C 18.007812 16.696574 19.808099 18.5 22.003906 18.5 C 24.199713 18.5 26 16.696574 26 14.5 C 26 12.303426 24.199713 10.5 22.003906 10.5 z M 13 12 C 11.35499 12 10 13.35499 10 15 C 10 16.64501 11.35499 18 13 18 C 14.64501 18 16 16.64501 16 15 C 16 13.35499 14.64501 12 13 12 z M 43.992188 20.001953 C 41.245662 20.001953 39 22.251784 39 25 C 39 27.748216 41.245662 29.998047 43.992188 29.998047 C 46.738712 29.998047 48.986328 27.748216 48.986328 25 C 48.986328 22.251784 46.738711 20.001953 43.992188 20.001953 z M 32.494141 20.5 C 30.022692 20.5 28 22.527335 28 25 C 28 27.472665 30.022692 29.5 32.494141 29.5 C 34.965589 29.5 36.990234 27.472665 36.990234 25 C 36.990234 22.527335 34.965589 20.5 32.494141 20.5 z M 22.005859 21 C 19.810053 21 18.009766 22.803426 18.009766 25 C 18.009766 27.196574 19.810053 29 22.005859 29 C 24.201666 29 26.001953 27.196574 26.001953 25 C 26.001953 22.803426 24.201666 21 22.005859 21 z M 5 22 C 3.3549904 22 2 23.35499 2 25 C 2 26.64501 3.3549904 28 5 28 C 6.6450096 28 8 26.64501 8 25 C 8 23.35499 6.6450096 22 5 22 z M 13 22 C 11.35499 22 10 23.35499 10 25 C 10 26.64501 11.35499 28 13 28 C 14.64501 28 16 26.64501 16 25 C 16 23.35499 14.64501 22 13 22 z M 32.494141 31 C 30.022692 31 28 33.027335 28 35.5 C 28 37.972665 30.022692 40 32.494141 40 C 34.965589 40 36.990234 37.972665 36.990234 35.5 C 36.990234 33.027335 34.965589 31 32.494141 31 z M 22.003906 31.5 C 19.808099 31.5 18.007814 33.303426 18.007812 35.5 C 18.007812 37.696574 19.808099 39.5 22.003906 39.5 C 24.199713 39.5 26 37.696574 26 35.5 C 26 33.303426 24.199713 31.5 22.003906 31.5 z M 13.003906 32 C 11.359742 32 10.005859 33.355801 10.005859 35 C 10.005859 36.644199 11.359742 38 13.003906 38 C 14.648071 38 16 36.644199 16 35 C 16 33.355801 14.648071 32 13.003906 32 z M 22.003906 41 C 19.802255 41 18 42.813029 18 45.017578 C 18.000001 47.222127 19.802256 49.035156 22.003906 49.035156 C 24.205556 49.035156 26.005859 47.222127 26.005859 45.017578 C 26.005859 42.813029 24.205557 41 22.003906 41 z"/></svg>